<svg width="32" height="33" viewBox="0 0 32 33" fill="none" xmlns="http://www.w3.org/2000/svg">
<path d="M31.416 28.0232L24.066 20.4435C25.292 18.3975 26 15.9864 26 13.4062C26 6.00188 20.18 0 13 0C5.82 0 0 6.00188 0 13.4062C0 20.8106 5.82 26.8125 13 26.8125C15.502 26.8125 17.84 26.0824 19.824 24.8181L27.174 32.3978C27.952 33.2001 29.224 33.2001 30.002 32.3978L31.416 30.9396C32.194 30.1373 32.194 28.8255 31.416 28.0232ZM6.636 19.9691C4.936 18.216 4 15.8854 4 13.4062C4 10.9271 4.936 8.5965 6.636 6.84338C8.336 5.09025 10.596 4.125 13 4.125C15.404 4.125 17.664 5.09025 19.364 6.84338C21.064 8.5965 22 10.9271 22 13.4062C22 15.8854 21.064 18.216 19.364 19.9691C17.664 21.7222 15.404 22.6875 13 22.6875C10.596 22.6875 8.336 21.7222 6.636 19.9691Z" fill="black"/>
</svg>
