<svg width="490" height="490" viewBox="0 0 490 490" fill="none" xmlns="http://www.w3.org/2000/svg">
<path d="M293.6 0C185.1 0 97.2 87.9 97.2 196.4C97.2 243.3 113.6 286.3 141 320.1L6 455.1C-2 463.1 -2 476 6 484C14 492 26.9 492 34.9 484L169.9 349C203.7 376.4 246.7 392.8 293.6 392.8C402.1 392.8 490 304.9 490 196.4C490 87.9 402 0 293.6 0V0ZM293.6 352C207.7 352 138 282.3 138 196.4C138 110.5 207.7 40.8 293.6 40.8C379.5 40.8 449.2 110.5 449.2 196.4C449.2 282.3 379.5 352 293.6 352V352Z" fill="white"/>
</svg>
