<svg width="585" height="792" viewBox="0 0 585 792" fill="none" xmlns="http://www.w3.org/2000/svg">
<path d="M537.914 792H46.964C21.04 792 0 770.871 0 745.036V46.964C0 21.041 21.129 0 46.964 0H537.913C563.837 0 584.877 21.129 584.877 46.964V744.947C584.878 770.871 563.837 792 537.914 792ZM46.964 35.512C40.217 35.512 35.423 40.306 35.423 47.053V745.036C35.423 751.783 40.217 756.577 46.964 756.577H537.913C544.66 756.577 549.454 751.783 549.454 745.036V46.964C549.454 40.217 544.66 35.423 537.913 35.423H46.964V35.512ZM467.956 556.113C467.956 546.525 460.321 538.89 450.733 538.89H244.498C234.91 538.89 227.275 546.525 227.275 556.113C227.275 565.701 234.91 573.336 244.498 573.336H449.667C459.255 573.425 467.956 565.702 467.956 556.113ZM467.956 662.56C467.956 652.972 460.321 645.337 450.733 645.337H244.498C234.91 645.337 227.275 652.972 227.275 662.56C227.275 672.148 234.91 679.783 244.498 679.783H449.667C459.255 679.783 467.956 672.148 467.956 662.56ZM467.956 450.644C467.956 441.056 460.321 433.421 450.733 433.421H244.498C234.91 433.421 227.275 441.056 227.275 450.644C227.275 460.232 234.91 467.867 244.498 467.867H449.667C459.255 468.843 467.956 461.208 467.956 450.644ZM467.956 346.15C467.956 336.562 460.321 328.927 450.733 328.927H244.498C234.91 328.927 227.275 336.562 227.275 346.15C227.275 355.738 234.91 363.373 244.498 363.373H449.667C459.255 363.374 467.956 355.739 467.956 346.15ZM466.003 241.657C466.003 232.069 458.368 224.434 448.78 224.434H244.587C234.999 224.434 227.364 232.069 227.364 241.657C227.364 251.245 234.999 258.88 244.587 258.88H448.779C458.368 258.88 466.003 251.245 466.003 241.657ZM466.003 136.187C466.003 126.599 458.368 118.964 448.78 118.964H244.587C234.999 118.964 227.364 126.599 227.364 136.187C227.364 145.775 234.999 153.41 244.587 153.41H448.779C458.368 154.387 466.003 145.776 466.003 136.187ZM135.211 167.793L179.334 123.67C186.081 116.923 186.081 105.47 179.334 98.723C172.587 91.976 161.134 91.976 154.387 98.723L122.782 130.417L117.011 124.646C110.264 117.899 98.811 117.899 92.064 124.646C85.317 131.393 85.317 142.846 92.064 149.593L110.264 167.793C114.082 171.611 117.899 172.587 122.693 172.587C126.599 172.587 131.393 170.723 135.211 167.793ZM135.211 276.192L179.334 232.069C186.081 225.322 186.081 213.869 179.334 207.122C172.587 200.375 161.134 200.375 154.387 207.122L122.782 238.727L117.011 232.956C110.264 226.209 98.811 226.209 92.064 232.956C85.317 239.703 85.317 251.156 92.064 257.903L110.264 276.103C113.105 278.944 117.899 280.897 122.693 280.897C126.599 280.986 131.393 279.033 135.211 276.192ZM135.211 380.686L179.334 336.563C186.081 329.816 186.081 318.363 179.334 311.616C172.587 304.869 161.134 304.869 154.387 311.616L122.782 343.221L117.011 337.45C110.264 330.703 98.811 330.703 92.064 337.45C85.317 344.197 85.317 355.65 92.064 362.397L110.264 380.597C113.105 383.438 117.899 385.391 122.693 385.391C126.599 385.48 131.393 384.503 135.211 380.686ZM135.211 485.179L179.334 441.056C186.081 434.309 186.081 422.856 179.334 416.109C172.587 409.362 161.134 409.362 154.387 416.109L122.782 447.714L116.035 441.943C109.288 435.196 97.835 435.196 91.088 441.943C84.341 448.69 84.341 460.143 91.088 466.89L109.288 485.09C112.129 487.931 116.923 489.884 121.717 489.884C126.599 490.949 131.393 488.996 135.211 485.179ZM135.211 590.649L179.334 546.526C186.081 539.779 186.081 528.326 179.334 521.579C172.587 514.832 161.134 514.832 154.387 521.579L122.782 553.184L117.011 547.413C110.264 540.666 98.811 540.666 92.064 547.413C85.317 554.16 85.317 565.613 92.064 572.36L110.264 590.56C113.105 593.401 117.899 595.354 122.693 595.354C126.599 595.443 131.393 593.49 135.211 590.649ZM135.211 696.118L179.334 651.995C186.081 645.248 186.081 633.795 179.334 627.048C172.587 620.301 161.134 620.301 154.387 627.048L122.782 658.653L116.035 652.882C109.288 646.135 97.835 646.135 91.088 652.882C84.341 659.629 84.341 671.082 91.088 677.829L109.288 696.029C113.105 699.847 116.923 700.823 121.717 700.823C126.599 701.889 131.393 699.936 135.211 696.118Z" fill="white"/>
</svg>
