<svg width="344" height="272" viewBox="0 0 344 272" fill="none" xmlns="http://www.w3.org/2000/svg">
<path d="M160.04 27.2H184.568C191.926 27.2 196.832 21.76 196.832 13.6C196.832 5.44 191.926 0 184.568 0H160.04C152.682 0 147.776 5.44 147.776 13.6C147.776 21.76 152.682 27.2 160.04 27.2Z" fill="white"/>
<path d="M342.774 197.199C340.321 193.119 335.415 190.399 331.736 190.399H318.246C312.114 130.559 267.964 70.7187 211.551 51.6787C185.797 42.1587 157.59 42.1587 131.836 51.6787C76.6488 70.7187 31.2727 130.559 26.3672 190.399H12.877C9.19786 190.399 4.29234 193.119 1.83957 197.199C-0.613191 201.279 -0.613191 206.719 1.83957 210.799C19.0089 248.879 53.3476 271.999 92.5918 271.999H253.248C291.266 271.999 326.831 248.879 344 209.439C344 205.359 344 201.279 342.774 197.199ZM139.194 77.5187C160.043 70.7187 183.344 70.7187 204.193 77.5187C249.569 92.4787 287.586 141.439 293.718 190.399H50.8948C57.0267 141.439 93.8182 93.8387 139.194 77.5187ZM252.021 244.799H92.5918C70.5169 244.799 50.8948 235.279 36.1783 217.599H308.435C293.718 235.279 274.096 244.799 252.021 244.799Z" fill="white"/>
</svg>
