<svg width="194" height="83" viewBox="0 0 194 83" fill="none" xmlns="http://www.w3.org/2000/svg">
<path d="M67.6667 1.80011C56.7334 5.00011 51.4 20.0668 57.5334 30.0668C61.4 36.3334 68.4667 39.5334 75.5334 38.3334C83.2667 37.0001 85.9334 37.0001 89.4 38.2001C91.8 39.0001 92.3334 38.7334 92.3334 36.4668C92.3334 34.7334 91.5334 33.6668 90.2 33.6668C88.6 33.6668 88.3334 33.0001 89 31.2668C92.6 23.0001 92.8667 19.1334 90.2 12.7334C86.4667 3.66678 77 -0.999892 67.6667 1.80011ZM82.6 10.0668C86.8667 14.2001 88.0667 21.9334 85.1334 26.3334L82.8667 29.8001L78.7334 26.8668C76.2 25.0001 71.9334 23.6668 67.4 23.2668C60.6 22.7334 60.3334 22.4668 60.3334 18.7334C60.3334 13.5334 62.3334 10.2001 66.7334 7.66678C71.5334 5.00011 78.7334 6.06678 82.6 10.0668ZM73 28.8668C75.5334 29.9334 77.6667 31.5334 77.6667 32.2001C77.6667 34.4668 69.2667 33.9334 65.9334 31.5334C59.6667 27.1334 64.4667 25.4001 73 28.8668Z" fill="white"/>
<path d="M156.333 2.06671C154.6 3.00004 152.6 5.6667 151.8 7.93337C150.2 13.6667 153.267 18.3334 160.333 21.1334C166.067 23.4 167.933 26.7334 165.667 31C163.667 34.8667 158.467 34.4667 155.267 30.0667C152.067 25.6667 149.133 26.8667 151.133 31.9334C153.8 39.1334 161.267 41.1334 167.533 36.2C170.333 34.0667 171 32.3334 171 27.8C171 21.4 169.133 19.1334 161.4 15.9334C156.467 13.8 155.533 12.0667 157.133 7.80004C158.333 4.73337 163.933 5.13337 165 8.33337C165.533 9.80004 167 11 168.467 11C170.6 11 171 10.4667 170.333 7.93337C168.467 1.80004 162.067 -0.999961 156.333 2.06671Z" fill="white"/>
<path d="M1.53357 2.2C1.26691 2.46666 1.13357 11 1.40024 21C1.80024 37.2667 2.06691 39.1333 4.06691 38.7333C5.80024 38.4667 6.46691 36.4667 7.00024 30.4667L7.66691 22.6L13.4002 30.7333C17.1336 36.0667 20.0669 39 21.8002 39C25.2669 39 25.0002 37.9333 19.8002 31.1333L15.2669 25.1333L19.4002 22.4667C27.0002 17.2667 26.8669 7.4 19.0002 3.4C15.9336 1.8 2.86691 0.999998 1.53357 2.2ZM18.7336 9.4C22.4669 14.3333 18.6002 20.3333 11.4002 20.3333H7.00024V12.8667V5.4L12.0669 6.33333C14.7336 6.73333 17.8002 8.2 18.7336 9.4Z" fill="white"/>
<path d="M31 20.3333V39H40.3333C48.7333 39 49.6667 38.7333 49.6667 36.3333C49.6667 34.0667 48.7333 33.6667 43 33.6667H36.3333V28.3333V23H43C48.7333 23 49.6667 22.6 49.6667 20.3333C49.6667 18.0667 48.7333 17.6667 43 17.6667H36.3333V11.6667V5.66666H43C48.0667 5.66666 49.6667 5.13333 49.6667 3.66666C49.6667 2.06666 47.8 1.66666 40.3333 1.66666H31V20.3333Z" fill="white"/>
<path d="M96.3335 16.4667C96.3335 31 96.3335 31.2667 100.2 35.1333C105.133 39.9333 110.733 40.2 115.933 35.8C119.533 32.6 119.667 32.2 120.067 17.1333C120.6 2.19999 120.467 1.66666 117.8 1.66666C115.133 1.66666 115 2.33333 115 15.1333C115 30.3333 113.8 33.6667 108.6 33.6667C102.467 33.6667 101.667 31.6667 101.667 16.0667C101.667 2.59999 101.533 1.66666 99.0002 1.66666C96.4668 1.66666 96.3335 2.59999 96.3335 16.4667Z" fill="white"/>
<path d="M127 20.3333V39H136.333C144.733 39 145.667 38.7333 145.667 36.3333C145.667 34.0667 144.733 33.6667 139 33.6667H132.333V28.3333V23H139C144.733 23 145.667 22.6 145.667 20.3333C145.667 18.0667 144.733 17.6667 139 17.6667H132.333V11.6667V5.66666H139C144.067 5.66666 145.667 5.13333 145.667 3.66666C145.667 2.06666 143.8 1.66666 136.333 1.66666H127V20.3333Z" fill="white"/>
<path d="M173.667 3.66675C173.667 4.86675 174.867 5.66675 177 5.66675H180.2L180.6 21.9334C181 36.2001 181.267 38.3334 183.267 38.7334C185.4 39.1334 185.667 37.4001 185.934 22.7334L186.334 6.33342L190.067 5.93342C192.067 5.66675 193.667 4.73342 193.667 3.53342C193.667 2.06675 191.4 1.66675 183.667 1.66675C175.667 1.66675 173.667 2.06675 173.667 3.66675Z" fill="white"/>
<path d="M55.6669 43.1334C46.8669 45.6667 41.1335 55.9334 43.1335 65.2667C46.4669 81.4 66.7335 85.8 76.0669 72.6C86.6002 57.9334 72.7335 38.0667 55.6669 43.1334ZM66.3335 48.8667C72.0669 51.2667 75.5335 57.6667 74.4669 63.8C73.2669 69.5334 66.8669 75 61.1335 75C47.4002 75 42.7335 55.5334 55.0002 49.4C60.6002 46.4667 60.6002 46.4667 66.3335 48.8667Z" fill="white"/>
<path d="M0.333496 61.6668C0.333496 79.4002 0.466829 80.3335 3.00016 80.3335C5.40016 80.3335 5.66683 79.4002 5.66683 72.3335V64.3335H11.6668C16.7335 64.3335 17.6668 63.9335 17.6668 61.6668C17.6668 59.4002 16.7335 59.0002 11.6668 59.0002H5.66683V53.6668V48.3335H11.6668C16.7335 48.3335 17.6668 47.9335 17.6668 45.6668C17.6668 43.2668 16.7335 43.0002 9.00016 43.0002H0.333496V61.6668Z" fill="white"/>
<path d="M99.4002 45.2667C98.8668 46.4667 99.2668 47.8001 100.067 48.0667C102.867 49.0001 100.333 51.0001 96.2002 51.0001C93.6668 51.0001 92.3335 51.6667 92.3335 53.0001C92.3335 54.6001 94.4668 55.0001 103 55.0001C108.867 55.0001 113.667 55.4001 113.667 55.9334C113.533 58.6001 111.133 60.2001 106.333 60.6001C99.0002 61.1334 99.0002 64.8667 106.333 65.4001C111.133 65.8001 113.533 67.4001 113.667 69.9334C113.667 70.6001 108.867 71.0001 102.867 71.0001C93.4002 71.0001 92.2002 71.2667 92.6002 73.4001C92.8668 74.8667 94.6002 75.9334 97.6668 76.3334C100.733 76.7334 101.8 77.4001 100.733 78.0667C99.8002 78.7334 99.0002 80.0667 99.0002 81.1334C99.0002 84.2001 134.067 83.8001 140.333 80.6001C154.867 73.4001 154.6 52.2001 139.933 45.6667C132.067 42.0667 100.733 41.8001 99.4002 45.2667ZM142.467 52.8667C146.2 56.6001 147 58.4667 147 63.0001C147 67.5334 146.2 69.4001 142.467 73.1334C138.6 77.0001 137 77.6667 131.933 77.6667C124.733 77.6667 119.667 74.0667 117.8 67.6667C114.867 57.0001 121.533 48.4667 132.867 48.3334C136.867 48.3334 138.867 49.2667 142.467 52.8667Z" fill="white"/>
<path d="M129.267 57.1335C126.467 62.8668 126.334 65.6668 128.867 65.6668C130.067 65.6668 131 67.2668 131.267 69.9335L131.667 74.3335L134.867 68.4668C137.667 63.1335 137.8 62.3335 135.8 61.0002C134.6 60.0668 133.667 58.0668 133.667 56.6002C133.667 51.9335 131.534 52.2002 129.267 57.1335Z" fill="white"/>
<path d="M163 61.8001V80.7334L172.467 79.9334C177.667 79.5334 183.4 78.2001 185.133 77.0001C192.2 72.3334 195.133 58.7334 190.467 51.6667C186.6 45.6667 180.6 43.0001 171.4 43.0001H163V61.8001ZM181 49.6667C186.067 51.6667 189 59.4001 187.133 65.9334C185.133 72.2001 181.267 75.0001 174.067 75.0001H168.333V61.6667V48.3334H172.867C175.4 48.3334 179 48.8667 181 49.6667Z" fill="white"/>
<path d="M87.6667 61.6668C87.1333 62.6001 87.2667 63.8001 88.0667 64.6001C89.9333 66.4668 94.0667 64.8668 93.4 62.6001C92.6 60.4668 88.8667 59.8001 87.6667 61.6668Z" fill="white"/>
</svg>
