<?xml version="1.0" standalone="no"?>
<!DOCTYPE svg PUBLIC "-//W3C//DTD SVG 20010904//EN"
 "http://www.w3.org/TR/2001/REC-SVG-20010904/DTD/svg10.dtd">
<svg version="1.0" xmlns="http://www.w3.org/2000/svg"
 width="146.000000pt" height="63.000000pt" viewBox="0 0 146.000000 63.000000"
 preserveAspectRatio="xMidYMid meet">

<g transform="translate(0.000000,63.000000) scale(0.100000,-0.100000)"
fill="#000000" stroke="none">
<path d="M515 609 c-82 -24 -122 -137 -76 -212 29 -47 82 -71 135 -62 58 10
78 10 104 1 18 -6 22 -4 22 13 0 13 -6 21 -16 21 -12 0 -14 5 -9 18 27 62 29
91 9 139 -28 68 -99 103 -169 82z m112 -62 c32 -31 41 -89 19 -122 l-17 -26
-31 22 c-19 14 -51 24 -85 27 -51 4 -53 6 -53 34 0 39 15 64 48 83 36 20 90
12 119 -18z m-72 -141 c19 -8 35 -20 35 -25 0 -17 -63 -13 -88 5 -47 33 -11
46 53 20z"/>
<path d="M1180 607 c-13 -7 -28 -27 -34 -44 -12 -43 11 -78 64 -99 43 -17 57
-42 40 -74 -15 -29 -54 -26 -78 7 -24 33 -46 24 -31 -14 20 -54 76 -69 123
-32 21 16 26 29 26 63 0 48 -14 65 -72 89 -37 16 -44 29 -32 61 9 23 51 20 59
-4 4 -11 15 -20 26 -20 16 0 19 4 14 23 -14 46 -62 67 -105 44z"/>
<path d="M19 606 c-2 -2 -3 -66 -1 -141 3 -122 5 -136 20 -133 13 2 18 17 22
62 l5 59 43 -61 c28 -40 50 -62 63 -62 26 0 24 8 -15 59 l-34 45 31 20 c57 39
56 113 -3 143 -23 12 -121 18 -131 9z m129 -54 c28 -37 -1 -82 -55 -82 l-33 0
0 56 0 56 38 -7 c20 -3 43 -14 50 -23z"/>
<path d="M240 470 l0 -140 70 0 c63 0 70 2 70 20 0 17 -7 20 -50 20 l-50 0 0
40 0 40 50 0 c43 0 50 3 50 20 0 17 -7 20 -50 20 l-50 0 0 45 0 45 50 0 c38 0
50 4 50 15 0 12 -14 15 -70 15 l-70 0 0 -140z"/>
<path d="M730 499 c0 -109 0 -111 29 -140 37 -36 79 -38 118 -5 27 24 28 27
31 140 4 112 3 116 -17 116 -20 0 -21 -5 -21 -101 0 -114 -9 -139 -48 -139
-46 0 -52 15 -52 132 0 101 -1 108 -20 108 -19 0 -20 -7 -20 -111z"/>
<path d="M960 470 l0 -140 70 0 c63 0 70 2 70 20 0 17 -7 20 -50 20 l-50 0 0
40 0 40 50 0 c43 0 50 3 50 20 0 17 -7 20 -50 20 l-50 0 0 45 0 45 50 0 c38 0
50 4 50 15 0 12 -14 15 -70 15 l-70 0 0 -140z"/>
<path d="M1310 595 c0 -9 9 -15 25 -15 l24 0 3 -122 c3 -107 5 -123 20 -126
16 -3 18 10 20 120 l3 123 28 3 c15 2 27 9 27 18 0 11 -17 14 -75 14 -60 0
-75 -3 -75 -15z"/>
<path d="M425 299 c-66 -19 -109 -96 -94 -166 25 -121 177 -154 247 -55 79
110 -25 259 -153 221z m80 -43 c43 -18 69 -66 61 -112 -9 -43 -57 -84 -100
-84 -103 0 -138 146 -46 192 42 22 42 22 85 4z"/>
<path d="M10 160 c0 -133 1 -140 20 -140 18 0 20 7 20 60 l0 60 45 0 c38 0 45
3 45 20 0 17 -7 20 -45 20 l-45 0 0 40 0 40 45 0 c38 0 45 3 45 20 0 18 -7 20
-65 20 l-65 0 0 -140z"/>
<path d="M753 283 c-4 -9 -1 -19 5 -21 21 -7 2 -22 -29 -22 -19 0 -29 -5 -29
-15 0 -12 16 -15 80 -15 44 0 80 -3 80 -7 -1 -20 -19 -32 -55 -35 -55 -4 -55
-32 0 -36 36 -3 54 -15 55 -34 0 -5 -36 -8 -81 -8 -71 0 -80 -2 -77 -18 2 -11
15 -19 38 -22 23 -3 31 -8 23 -13 -7 -5 -13 -15 -13 -23 0 -23 263 -20 310 4
109 54 107 213 -3 262 -59 27 -294 29 -304 3z m323 -57 c28 -28 34 -42 34 -76
0 -34 -6 -48 -34 -76 -29 -29 -41 -34 -79 -34 -54 0 -92 27 -106 75 -22 80 28
144 113 145 30 0 45 -7 72 -34z"/>
<path d="M977 194 c-21 -43 -22 -64 -3 -64 9 0 16 -12 18 -32 l3 -33 24 44
c21 40 22 46 7 56 -9 7 -16 22 -16 33 0 35 -16 33 -33 -4z"/>
<path d="M1230 159 l0 -142 71 6 c39 3 82 13 95 22 53 35 75 137 40 190 -29
45 -74 65 -143 65 l-63 0 0 -141z m135 91 c38 -15 60 -73 46 -122 -15 -47 -44
-68 -98 -68 l-43 0 0 100 0 100 34 0 c19 0 46 -4 61 -10z"/>
<path d="M665 160 c-4 -7 -3 -16 3 -22 14 -14 45 -2 40 15 -6 16 -34 21 -43 7z"/>
</g>
</svg>
