<?xml version='1.0' encoding='iso-8859-1'?>
<svg version="1.1" xmlns="http://www.w3.org/2000/svg" viewBox="0 0 44 44" xmlns:xlink="http://www.w3.org/1999/xlink" enable-background="new 0 0 44 44">
  <g>
    <g>
      <path d="m39.5,10h-3v-2c0-4.418-3.581-8-8-8-1.852,0-3.551,0.635-4.907,1.69l.01,.013c-0.179,0.181-0.29,0.429-0.29,0.703 0,0.553 0.448,1 1,1 0.185,0 0.349-0.063 0.497-0.151l.022,.028c1.017-0.792 2.279-1.283 3.668-1.283 3.313,0 6,2.687 6,6v2h-11v-2c0-4.418-3.581-8-8-8s-8,3.582-8,8v2h-3c-0.552,0-1,0.447-1,1v32c0,0.553 0.448,1 1,1h35c0.552,0 1-0.447 1-1v-32c0-0.553-0.448-1-1-1zm-30-2c0-3.313 2.686-6 6-6 3.313,0 6,2.687 6,6v2h-12v-2zm17,34h-21v-30h2v3c0,0.553 0.448,1 1,1s1-0.447 1-1v-3h12v3c0,0.553 0.448,1 1,1s1-0.447 1-1v-3h3v30zm2-30h4v24.529l-4,3.984v-28.513zm1.475,30l3.539-3.524 3.524,3.524h-7.063zm8.525-1.494l-4-4v-24.506h4v28.506z"/>
    </g>
  </g>
</svg>
