<svg width="37" height="44" viewBox="0 0 37 44" fill="none" xmlns="http://www.w3.org/2000/svg">
<path d="M36 10H33V8C33 3.582 29.419 0 25 0C23.148 0 21.449 0.635 20.093 1.69L20.103 1.703C19.924 1.884 19.813 2.132 19.813 2.406C19.813 2.959 20.261 3.406 20.813 3.406C20.998 3.406 21.162 3.343 21.31 3.255L21.332 3.283C22.349 2.491 23.611 2 25 2C28.313 2 31 4.687 31 8V10H20V8C20 3.582 16.419 0 12 0C7.581 0 4 3.582 4 8V10H1C0.448 10 0 10.447 0 11V43C0 43.553 0.448 44 1 44H36C36.552 44 37 43.553 37 43V11C37 10.447 36.552 10 36 10ZM6 8C6 4.687 8.686 2 12 2C15.313 2 18 4.687 18 8V10H6V8ZM23 42H2V12H4V15C4 15.553 4.448 16 5 16C5.552 16 6 15.553 6 15V12H18V15C18 15.553 18.448 16 19 16C19.552 16 20 15.553 20 15V12H23V42ZM25 12H29V36.529L25 40.513V12V12ZM26.475 42L30.014 38.476L33.538 42H26.475V42ZM35 40.506L31 36.506V12H35V40.506Z" fill="white"/>
</svg>
