<svg width="592" height="559" viewBox="0 0 592 559" fill="none" xmlns="http://www.w3.org/2000/svg">
<path d="M211.481 0.760781C162.281 8.36078 119.614 44.4941 105.081 90.7608C99.7478 107.961 98.4145 118.627 99.2145 137.561C100.548 171.294 113.081 199.961 136.948 224.227C153.748 241.294 175.881 253.694 199.748 259.694C214.814 263.427 243.614 263.694 258.681 260.227C282.414 254.894 304.681 242.627 322.148 225.561C334.014 213.827 341.081 204.094 348.681 189.161C365.748 155.294 366.148 111.294 349.748 76.2275C332.014 38.3608 300.014 12.7608 258.148 2.62745C248.014 0.227448 222.014 -0.839219 211.481 0.760781ZM257.481 34.6274C276.414 39.5608 298.281 54.4941 310.414 70.8941C323.614 88.8941 329.348 104.494 330.414 126.094C333.214 179.427 295.214 224.894 242.414 231.427C189.881 237.961 140.548 201.561 131.481 149.427C127.481 126.494 130.014 108.361 140.148 88.0941C162.281 43.4275 208.814 22.2274 257.481 34.6274Z" fill="white"/>
<path d="M129.814 250.989C108.348 255.789 80.3477 268.322 64.481 280.322C38.7477 299.656 20.081 324.456 9.01432 353.656C0.480992 376.322 -0.319009 384.322 0.0809912 440.322L0.480991 489.389L9.01432 497.122C52.7477 537.389 134.214 557.922 239.414 555.122C287.014 553.789 330.881 549.522 364.214 542.722L381.281 539.256L387.548 542.722C418.214 559.389 460.748 562.856 494.748 551.656C543.281 535.389 579.548 494.856 589.281 445.656C591.948 432.456 591.548 400.322 588.748 388.322C583.148 365.389 572.214 344.056 556.614 325.789C540.481 306.989 511.814 289.522 485.814 282.722C468.214 278.189 441.414 277.656 423.014 281.522L410.881 284.056L402.348 278.056C382.214 263.789 351.548 251.256 332.214 249.522C322.614 248.589 322.481 248.589 314.214 253.922C287.148 271.256 267.681 277.256 237.148 277.389C207.681 277.522 181.548 269.656 158.081 253.522C150.614 248.322 144.081 247.789 129.814 250.989ZM153.281 287.122C167.281 294.989 184.214 301.389 201.414 305.256C219.414 309.256 251.548 309.522 269.814 305.922C285.148 302.856 305.948 294.989 320.081 286.989L331.148 280.722L340.481 282.989C350.348 285.389 377.148 297.389 377.148 299.389C377.148 300.056 374.081 302.589 370.214 304.989C361.414 310.722 345.814 326.322 338.081 337.256C329.414 349.389 320.348 368.856 316.214 384.322C313.148 395.922 312.748 400.322 312.614 418.322C312.614 436.722 313.014 440.456 316.081 451.789C322.348 474.322 331.014 491.789 343.148 506.456C345.681 509.389 347.814 512.456 347.814 512.989C347.814 515.389 315.548 519.656 276.881 522.322C249.948 524.189 194.481 524.189 173.148 522.322C114.081 517.256 68.081 503.256 38.7477 481.389L30.3477 475.122L30.7477 430.322C31.281 388.722 31.5477 384.989 34.3477 375.656C38.081 363.256 47.281 343.789 53.5477 335.122C60.481 325.656 75.1477 311.122 84.481 304.456C99.681 293.522 128.614 281.256 139.548 281.122C141.148 280.989 147.414 283.789 153.281 287.122ZM485.814 314.322C506.081 320.856 524.881 333.256 537.948 348.856C546.748 359.389 557.548 380.722 560.614 393.656C563.548 406.056 563.548 430.722 560.614 442.722C549.681 488.056 513.014 520.722 466.081 526.722C428.348 531.522 387.814 512.989 365.414 480.456C351.948 461.122 346.214 442.589 346.214 418.989C346.081 399.789 348.881 387.656 357.014 370.989C372.214 340.056 399.681 318.722 433.281 311.656C436.481 310.989 447.548 310.589 457.814 310.856C472.614 311.256 478.481 311.922 485.814 314.322Z" fill="white"/>
<path d="M386.014 416.761C378.414 419.827 374.814 432.361 379.614 439.161C384.414 445.961 385.081 446.094 445.481 446.094C505.881 446.094 506.548 445.961 511.348 439.161C512.548 437.561 513.481 433.561 513.481 430.361C513.481 425.427 512.681 423.694 508.948 419.961L504.414 415.427L446.548 415.561C414.814 415.561 387.481 416.094 386.014 416.761Z" fill="white"/>
</svg>
