<?xml version="1.0" standalone="no"?>
<!DOCTYPE svg PUBLIC "-//W3C//DTD SVG 20010904//EN"
 "http://www.w3.org/TR/2001/REC-SVG-20010904/DTD/svg10.dtd">
<svg version="1.0" xmlns="http://www.w3.org/2000/svg"
 width="448.000000pt" height="433.000000pt" viewBox="0 0 448.000000 433.000000"
 preserveAspectRatio="xMidYMid meet">

<g transform="translate(0.000000,433.000000) scale(0.100000,-0.100000)"
fill="#000000" stroke="none">
<path d="M1685 4280 c-369 -57 -689 -328 -798 -675 -40 -129 -50 -209 -44
-351 10 -253 104 -468 283 -650 126 -128 292 -221 471 -266 113 -28 329 -30
442 -4 178 40 345 132 476 260 89 88 142 161 199 273 128 254 131 584 8 847
-133 284 -373 476 -687 552 -76 18 -271 26 -350 14z m345 -254 c142 -37 306
-149 397 -272 99 -135 142 -252 150 -414 21 -400 -264 -741 -660 -790 -394
-49 -764 224 -832 615 -30 172 -11 308 65 460 166 335 515 494 880 401z"/>
<path d="M1005 2325 c-161 -36 -371 -130 -490 -220 -193 -145 -333 -331 -416
-550 -64 -170 -70 -230 -67 -650 l3 -368 64 -58 c328 -302 939 -456 1728 -435
357 10 686 42 936 93 l128 26 47 -26 c230 -125 549 -151 804 -67 364 122 636
426 709 795 20 99 17 340 -4 430 -42 172 -124 332 -241 469 -121 141 -336 272
-531 323 -132 34 -333 38 -471 9 l-91 -19 -64 45 c-151 107 -381 201 -526 214
-72 7 -73 7 -135 -33 -203 -130 -349 -175 -578 -176 -221 -1 -417 58 -593 179
-56 39 -105 43 -212 19z m176 -271 c105 -59 232 -107 361 -136 135 -30 376
-32 513 -5 115 23 271 82 377 142 l83 47 70 -17 c74 -18 275 -108 275 -123 0
-5 -23 -24 -52 -42 -66 -43 -183 -160 -241 -242 -65 -91 -133 -237 -164 -353
-23 -87 -26 -120 -27 -255 0 -138 3 -166 26 -251 47 -169 112 -300 203 -410
19 -22 35 -45 35 -49 0 -18 -242 -50 -532 -70 -202 -14 -618 -14 -778 0 -443
38 -788 143 -1008 307 l-63 47 3 336 c4 312 6 340 27 410 28 93 97 239 144
304 52 71 162 180 232 230 114 82 331 174 413 175 12 1 59 -20 103 -45z m2494
-204 c152 -49 293 -142 391 -259 66 -79 147 -239 170 -336 22 -93 22 -278 0
-368 -82 -340 -357 -585 -709 -630 -283 -36 -587 103 -755 347 -101 145 -144
284 -144 461 -1 144 20 235 81 360 114 232 320 392 572 445 24 5 107 8 184 6
111 -3 155 -8 210 -26z"/>
<path d="M2994 1160 c-57 -23 -84 -117 -48 -168 36 -51 41 -52 494 -52 453 0
458 1 494 52 9 12 16 42 16 66 0 37 -6 50 -34 78 l-34 34 -434 -1 c-238 0
-443 -4 -454 -9z"/>
</g>
</svg>
