<svg width="612" height="459" viewBox="0 0 612 459" fill="none" xmlns="http://www.w3.org/2000/svg">
<path d="M535.5 0H76.5C34.253 0 0 34.253 0 76.5V382.5C0 424.747 34.253 459 76.5 459H535.5C577.747 459 612 424.747 612 382.5V76.5C612 34.253 577.747 0 535.5 0ZM554.625 38.25L306 229.5L57.375 38.25H554.625ZM38.25 382.5V76.5L210.375 210.375L40.067 393.555C38.996 390.035 38.25 386.383 38.25 382.5ZM67.989 419.736L240.592 235.83L306 285.249L368.596 235.505L544.011 419.717C541.257 420.349 70.743 420.349 67.989 419.736ZM571.934 393.573L401.625 210.375L573.75 76.5V382.5C573.75 386.383 573.004 390.035 571.934 393.573Z" fill="white"/>
</svg>
